<svg id="visual" viewBox="0 0 900 600" width="900" height="600" xmlns="http://www.w3.org/2000/svg" xmlns:xlink="http://www.w3.org/1999/xlink" version="1.1"><path d="M0 401L21.5 402.8C43 404.7 86 408.3 128.8 415C171.7 421.7 214.3 431.3 257.2 421C300 410.7 343 380.3 385.8 375.8C428.7 371.3 471.3 392.7 514.2 407.7C557 422.7 600 431.3 642.8 433.8C685.7 436.3 728.3 432.7 771.2 428.5C814 424.3 857 419.7 878.5 417.3L900 415L900 601L878.5 601C857 601 814 601 771.2 601C728.3 601 685.7 601 642.8 601C600 601 557 601 514.2 601C471.3 601 428.7 601 385.8 601C343 601 300 601 257.2 601C214.3 601 171.7 601 128.8 601C86 601 43 601 21.5 601L0 601Z" fill="#60a8ff"></path><path d="M0 476L21.5 468.3C43 460.7 86 445.3 128.8 432.2C171.7 419 214.3 408 257.2 404.2C300 400.3 343 403.7 385.8 415.7C428.7 427.7 471.3 448.3 514.2 454.7C557 461 600 453 642.8 445.8C685.7 438.7 728.3 432.3 771.2 426.7C814 421 857 416 878.5 413.5L900 411L900 601L878.5 601C857 601 814 601 771.2 601C728.3 601 685.7 601 642.8 601C600 601 557 601 514.2 601C471.3 601 428.7 601 385.8 601C343 601 300 601 257.2 601C214.3 601 171.7 601 128.8 601C86 601 43 601 21.5 601L0 601Z" fill="#3c94ff"></path><path d="M0 437L21.5 446.3C43 455.7 86 474.3 128.8 477C171.7 479.7 214.3 466.3 257.2 465C300 463.7 343 474.3 385.8 478.8C428.7 483.3 471.3 481.7 514.2 475.5C557 469.3 600 458.7 642.8 453.3C685.7 448 728.3 448 771.2 448.3C814 448.7 857 449.3 878.5 449.7L900 450L900 601L878.5 601C857 601 814 601 771.2 601C728.3 601 685.7 601 642.8 601C600 601 557 601 514.2 601C471.3 601 428.7 601 385.8 601C343 601 300 601 257.2 601C214.3 601 171.7 601 128.8 601C86 601 43 601 21.5 601L0 601Z" fill="#0080fe"></path><path d="M0 538L21.5 533.3C43 528.7 86 519.3 128.8 511.8C171.7 504.3 214.3 498.7 257.2 501.8C300 505 343 517 385.8 518C428.7 519 471.3 509 514.2 507.8C557 506.7 600 514.3 642.8 511.7C685.7 509 728.3 496 771.2 495.3C814 494.7 857 506.3 878.5 512.2L900 518L900 601L878.5 601C857 601 814 601 771.2 601C728.3 601 685.7 601 642.8 601C600 601 557 601 514.2 601C471.3 601 428.7 601 385.8 601C343 601 300 601 257.2 601C214.3 601 171.7 601 128.8 601C86 601 43 601 21.5 601L0 601Z" fill="#006fdc"></path><path d="M0 557L21.5 559C43 561 86 565 128.8 566.3C171.7 567.7 214.3 566.3 257.2 559.3C300 552.3 343 539.7 385.8 537C428.7 534.3 471.3 541.7 514.2 545.7C557 549.7 600 550.3 642.8 550.3C685.7 550.3 728.3 549.7 771.2 552.5C814 555.3 857 561.7 878.5 564.8L900 568L900 601L878.5 601C857 601 814 601 771.2 601C728.3 601 685.7 601 642.8 601C600 601 557 601 514.2 601C471.3 601 428.7 601 385.8 601C343 601 300 601 257.2 601C214.3 601 171.7 601 128.8 601C86 601 43 601 21.5 601L0 601Z" fill="#005fba"></path></svg>