<svg xmlns="http://www.w3.org/2000/svg" version="1.0" width="224.000000pt" height="226.000000pt" viewBox="0 0 224.000000 226.000000" preserveAspectRatio="xMidYMid meet" transform="matrix(1, 0, 0, 1, 0, 0)">

<g transform="translate(0.000000,226.000000) scale(0.100000,-0.100000)" fill="#fff" stroke="none">
<path d="M1231 1894 c0 -11 3 -14 6 -6 3 7 2 16 -1 19 -3 4 -6 -2 -5 -13z" fill="#fff"/>
<path d="M1042 1880 c0 -14 2 -19 5 -12 2 6 2 18 0 25 -3 6 -5 1 -5 -13z" fill="#fff"/>
<path d="M940 1885 c0 -5 5 -17 10 -25 5 -8 10 -10 10 -5 0 6 -5 17 -10 25 -5 8 -10 11 -10 5z" fill="#fff"/>
<path d="M1133 1830 c0 -25 2 -35 4 -22 2 12 2 32 0 45 -2 12 -4 2 -4 -23z" fill="#fff"/>
<path d="M1221 1844 c0 -11 3 -14 6 -6 3 7 2 16 -1 19 -3 4 -6 -2 -5 -13z" fill="#fff"/>
<path d="M1052 1830 c0 -14 2 -19 5 -12 2 6 2 18 0 25 -3 6 -5 1 -5 -13z" fill="#fff"/>
<path d="M960 1838 c0 -5 18 -60 35 -107 3 -8 8 -12 10 -9 2 2 -5 29 -16 59 -19 51 -29 70 -29 57z" fill="#fff"/>
<path d="M870 1810 c6 -11 13 -20 16 -20 2 0 0 9 -6 20 -6 11 -13 20 -16 20 -2 0 0 -9 6 -20z" fill="#fff"/>
<path d="M1209 1782 c-3 -20 -2 -29 4 -23 5 5 7 19 5 32 -3 20 -5 19 -9 -9z" fill="#fff"/>
<path d="M804 1747 c27 -31 51 -57 53 -57 7 0 -76 98 -90 107 -7 4 10 -19 37 -50z" fill="#fff"/>
<path d="M1062 1770 c0 -19 2 -27 5 -17 2 9 2 25 0 35 -3 9 -5 1 -5 -18z" fill="#fff"/>
<path d="M1379 1778 c-7 -13 -19 -34 -27 -48 -14 -24 -13 -24 3 -5 20 24 48 75 41 75 -3 0 -11 -10 -17 -22z" fill="#fff"/>
<path d="M1282 1761 c-6 -17 -9 -31 -6 -31 7 0 25 52 20 57 -2 2 -8 -10 -14 -26z" fill="#fff"/>
<path d="M907 1745 c9 -19 20 -35 25 -35 4 0 -2 16 -13 35 -12 19 -23 35 -25 35 -2 0 4 -16 13 -35z" fill="#fff"/>
<path d="M1474 1758 l-19 -23 23 19 c21 18 27 26 19 26 -2 0 -12 -10 -23 -22z" fill="#fff"/>
<path d="M690 1726 c0 -2 8 -10 18 -17 15 -13 16 -12 3 4 -13 16 -21 21 -21 13z" fill="#fff"/>
<path d="M1434 1708 l-19 -23 23 19 c21 18 27 26 19 26 -2 0 -12 -10 -23 -22z" fill="#fff"/>
<path d="M1529 1683 c-13 -16 -12 -17 4 -4 9 7 17 15 17 17 0 8 -8 3 -21 -13z" fill="#fff"/>
<path d="M1070 1660 c-36 -10 -164 -42 -285 -70 -331 -79 -361 -87 -345 -93 40 -15 686 -227 692 -227 4 0 8 38 10 85 3 85 3 86 -22 91 -38 8 -75 31 -78 49 -5 24 26 54 64 61 l34 6 0 59 c0 33 -1 58 -2 58 -2 -1 -32 -9 -68 -19z" fill="#fff"/>
<path d="M690 1231 c-7 -64 -13 -126 -14 -138 -1 -17 45 -53 231 -182 128 -89 234 -161 235 -161 2 0 3 101 3 224 l0 225 -221 74 -222 74 -12 -116z" fill="#fff"/>
<path d="M312 996 c4 -144 8 -150 156 -201 247 -85 475 -231 594 -380 47 -58 45 -42 -8 74 -81 178 -261 354 -511 502 -85 50 -217 119 -229 119 -3 0 -4 -51 -2 -114z" fill="#fff"/>
<path d="M1857 1057 c-335 -174 -561 -387 -651 -613 -15 -37 -25 -68 -23 -70 2 -2 18 16 36 41 36 51 168 165 251 217 89 57 227 123 343 163 150 53 157 62 157 206 0 60 -2 109 -5 109 -3 0 -51 -24 -108 -53z" fill="#fff"/>
<path d="M362 669 c6 -108 18 -119 168 -159 223 -60 368 -130 509 -248 l53 -46 -17 35 c-72 139 -220 272 -425 382 -86 45 -257 117 -280 117 -9 0 -11 -20 -8 -81z" fill="#fff"/>
<path d="M1815 716 c-112 -46 -237 -110 -320 -164 -92 -60 -242 -212 -280 -282 l-29 -55 55 46 c143 121 326 208 533 254 55 12 88 26 110 45 29 26 31 33 34 109 3 63 1 81 -9 81 -8 0 -50 -15 -94 -34z" fill="#fff"/>
<path d="M660 350 c0 -56 29 -81 126 -109 92 -27 192 -76 258 -126 39 -30 45 -32 35 -13 -44 83 -147 169 -284 234 -134 64 -135 64 -135 14z" fill="#fff"/>
<path d="M1549 366 c-133 -54 -260 -142 -312 -215 -53 -73 -53 -76 4 -34 72 54 156 95 260 127 48 14 92 33 99 41 18 22 30 105 16 105 -6 0 -36 -11 -67 -24z" fill="#fff"/>
</g>
</svg>